<?xml version="1.0" standalone="no"?>
<!DOCTYPE svg PUBLIC "-//W3C//DTD SVG 20010904//EN"
 "http://www.w3.org/TR/2001/REC-SVG-20010904/DTD/svg10.dtd">
<svg version="1.0" xmlns="http://www.w3.org/2000/svg"
 width="2000.000000pt" height="2000.000000pt" viewBox="0 0 2000.000000 2000.000000"
 preserveAspectRatio="xMidYMid meet">
<metadata>
Created by potrace 1.11, written by Peter Selinger 2001-2013
</metadata>
<g transform="translate(0.000000,2000.000000) scale(0.100000,-0.100000)"
fill="#000000" stroke="none">
<path d="M0 10000 l0 -10000 10000 0 10000 0 0 10000 0 10000 -10000 0 -10000
0 0 -10000z m10695 5196 c216 -20 473 -57 489 -70 16 -13 3277 -10026 3279
-10070 2 -27 -5 -32 -93 -77 -493 -249 -1328 -268 -1716 -38 -160 94 -309 307
-428 609 -23 59 -149 457 -281 886 l-239 779 -1788 0 -1788 0 -25 -80 c-13
-44 -168 -559 -344 -1145 -177 -586 -325 -1075 -330 -1086 -11 -26 -99 -44
-331 -71 -216 -24 -825 -24 -1011 0 -147 19 -312 54 -422 88 -62 20 -72 27
-106 75 l-39 54 384 1157 c211 637 963 2909 1672 5048 l1289 3890 94 12 c143
18 435 43 619 53 237 12 922 4 1115 -14z"/>
<path d="M9855 13173 c-69 -317 -273 -1107 -505 -1953 -102 -372 -540 -1829
-713 -2375 -7 -20 -2 -20 1288 -20 1146 0 1294 2 1290 15 -2 8 -149 506 -325
1105 -516 1750 -635 2177 -908 3235 l-17 65 -46 3 -47 3 -17 -78z"/>
</g>
</svg>
